<svg xmlns="http://www.w3.org/2000/svg" viewBox="0 0 48 48"><defs><style>.cls-1{fill:#192835;}.cls-2{fill:#a1d51c;}.cls-3{fill:#f5de0a;}.cls-4{fill:#7ab92d;}</style></defs><title>Microphone</title><g id="Microphone"><path class="cls-1" d="M24,39A15,15,0,0,1,9,24a1,1,0,0,1,2,0,13,13,0,0,0,26,0,1,1,0,0,1,2,0A15,15,0,0,1,24,39Z"/><path class="cls-2" d="M33,24a9,9,0,0,1-18,0Z"/><path class="cls-1" d="M31.07,5.88A10,10,0,0,0,14,13v10.1a1,1,0,0,0,1,1H33a1,1,0,0,0,1-1V13A9.93,9.93,0,0,0,31.07,5.88ZM32,22.05H16V13a8,8,0,1,1,16,0Z"/><path class="cls-3" d="M32,13v9.1H16V13a8,8,0,1,1,16,0Z"/><path class="cls-1" d="M14,26H8a1,1,0,0,1,0-2h6a1,1,0,0,1,0,2Z"/><path class="cls-1" d="M40,26H34a1,1,0,0,1,0-2h6a1,1,0,0,1,0,2Z"/><path class="cls-1" d="M24,45a1,1,0,0,1-1-1V38a1,1,0,0,1,2,0v6A1,1,0,0,1,24,45Z"/><path class="cls-1" d="M30,45H18a1,1,0,0,1,0-2H30a1,1,0,0,1,0,2Z"/><path class="cls-1" d="M20,12H14a1,1,0,0,1,0-2h6a1,1,0,0,1,0,2Z"/><path class="cls-1" d="M20,16H14a1,1,0,0,1,0-2h6a1,1,0,0,1,0,2Z"/><path class="cls-1" d="M34,12H28a1,1,0,0,1,0-2h6a1,1,0,0,1,0,2Z"/><path class="cls-1" d="M34,16H28a1,1,0,0,1,0-2h6a1,1,0,0,1,0,2Z"/><path class="cls-1" d="M20,20H14a1,1,0,0,1,0-2h6a1,1,0,0,1,0,2Z"/><path class="cls-1" d="M34,20H28a1,1,0,0,1,0-2h6a1,1,0,0,1,0,2Z"/><path class="cls-4" d="M29,28H15a1,1,0,0,1,0-2H29a1,1,0,0,1,0,2Z"/><path class="cls-1" d="M10,25a1,1,0,0,1-1-1V22a1,1,0,0,1,2,0v2A1,1,0,0,1,10,25Z"/><path class="cls-1" d="M38,25a1,1,0,0,1-1-1V22a1,1,0,0,1,2,0v2A1,1,0,0,1,38,25Z"/><path class="cls-1" d="M34,22H14a1,1,0,0,0-1,1v1a11,11,0,0,0,22,0V23A1,1,0,0,0,34,22ZM24,33a9,9,0,0,1-9-9H33A9,9,0,0,1,24,33Z"/></g></svg>